#!OML:ASF F:\VICON\USERDATA\INSTALL\rory3\rory3.ASF
:FULLY-SPECIFIED
:DEGREES
676
root -1.18147 16.6384 26.8555 213.934 149.311 -172.318
lowerback -21.4754 -3.6861 6.64434
upperback -11.4791 -5.84456 3.53761
thorax -0.883146 -3.04943 -1.10794
lowerneck 6.54125 -21.0073 -15.1351
upperneck 7.40491 -29.6588 10.877
head 5.02732 -14.9101 3.76409
rclavicle 6.38596e-015 4.6118e-014
rhumerus -47.5869 2.61603 -64.5465
rradius 15.1906
rwrist -14.0596
rhand 20.53 9.74055
rfingers 7.12502
rthumb 45.0285 -13.7478
lclavicle 6.38596e-015 4.6118e-014
lhumerus -236.785 -192.073 234.423
lradius 24.2035
lwrist -2.13515
lhand 23.0621 26.6891
lfingers 7.12502
lthumb 47.3762 49.1878
rfemur 121.18 -189.265 -163.667
rtibia 44.2641
rfoot -54.2182 -37.4421
rtoes 42.529
lfemur -15.9216 0.170107 -27.1769
ltibia 36.2582
lfoot 5.15966 39.1857
ltoes 20.9592
677
root -1.18282 16.6358 26.8561 213.812 149.244 -172.5
lowerback -21.4531 -3.61364 6.80916
upperback -11.5267 -5.77201 3.5463
thorax -0.961178 -3.02222 -1.17053
lowerneck 6.4273 -20.8669 -15.0853
upperneck 7.60858 -29.4466 10.635
head 5.03759 -14.8051 3.70521
rclavicle -2.08475e-014 -3.02153e-014
rhumerus -47.7713 2.52444 -64.4515
rradius 15.2764
rwrist -13.9927
rhand 20.3484 9.78022
rfingers 7.12502
rthumb 44.8595 -13.7745
lclavicle -2.08475e-014 -3.02153e-014
lhumerus -236.808 -192.083 234.372
lradius 24.2316
lwrist -2.22467
lhand 23.0661 26.1886
lfingers 7.12502
lthumb 47.38 48.6856
rfemur 121.206 -189.461 -163.56
rtibia 44.2895
rfoot -54.4988 -37.3703
rtoes 42.5144
lfemur -15.8518 -0.0736675 -26.9667
ltibia 36.2387
lfoot 2.76351 39.4469
ltoes 24.2564
678
root -1.18435 16.6321 26.8553 213.875 149.388 -172.368
lowerback -21.3387 -3.55859 6.67584
upperback -11.6322 -5.65657 3.4633
thorax -1.12041 -2.96717 -1.14962
lowerneck 6.3825 -20.7331 -14.9322
upperneck 7.66655 -29.2296 10.3653
head 4.97308 -14.7007 3.64812
rclavicle 4.87768e-014 -2.54444e-014
rhumerus -48.1254 2.69147 -64.5752
rradius 15.4394
rwrist -14.117
rhand 20.0001 9.91365
rfingers 7.12502
rthumb 44.5352 -13.7667
lclavicle 4.87768e-014 -2.54444e-014
lhumerus -236.859 -192.038 234.337
lradius 24.2689
lwrist -2.27401
lhand 22.9555 25.7358
lfingers 7.12502
lthumb 47.2777 48.2787
rfemur 121.141 -189.635 -163.835
rtibia 44.3336
rfoot -54.7881 -37.2848
rtoes 42.476
lfemur -15.8129 -0.194729 -27.1418
ltibia 36.2094
lfoot 2.50798 39.444
ltoes 24.4189
679
root -1.18534 16.6287 26.8546 213.95 149.52 -172.252
lowerback -21.2921 -3.53121 6.57754
upperback -11.7319 -5.5902 3.38668
thorax -1.24642 -2.93696 -1.15542
lowerneck 6.39573 -20.5792 -14.8848
upperneck 7.69875 -29.0115 10.2428
head 4.92947 -14.597 3.64359
rclavicle -5.40197e-014 1.59028e-015
rhumerus -48.3877 2.88251 -64.7614
rradius 15.5181
rwrist -14.1368
rhand 19.391 10.0964
rfingers 7.12502
rthumb 43.9674 -13.7986
lclavicle -5.40197e-014 1.59028e-015
lhumerus -236.95 -191.891 234.402
lradius 24.3686
lwrist -2.01306
lhand 22.7224 25.8785
lfingers 7.12502
lthumb 47.0622 48.5172
rfemur 121.075 -189.571 -163.931
rtibia 44.3613
rfoot -54.5683 -37.3268
rtoes 42.4571
lfemur -15.7912 -0.309754 -27.2942
ltibia 36.1919
lfoot 1.04615 39.5421
ltoes 26.1277
680
root -1.18588 16.6281 26.8552 213.924 149.477 -172.348
lowerback -21.4167 -3.5076 6.63367
upperback -11.6768 -5.58358 3.41978
thorax -1.12625 -2.93024 -1.16231
lowerneck 6.21551 -20.4788 -14.7903
upperneck 7.69304 -28.8394 10.1508
head 4.90717 -14.5068 3.61607
rclavicle 2.91716e-014 5.56597e-014
rhumerus -48.3954 3.11988 -65.0183
rradius 15.7798
rwrist -14.365
rhand 18.8707 9.83342
rfingers 7.12502
rthumb 43.4816 -14.2401
lclavicle 2.91716e-014 5.56597e-014
lhumerus -236.832 -191.876 234.599
lradius 24.4371
lwrist -1.7421
lhand 22.616 25.9441
lfingers 7.12502
lthumb 46.9638 48.6262
rfemur 121.049 -189.559 -163.813
rtibia 44.3747
rfoot -54.5091 -37.408
rtoes 42.3597
lfemur -15.8065 -0.322192 -27.1739
ltibia 36.1747
lfoot 0.67443 39.5692
ltoes 26.5956
681
root -1.18536 16.63 26.8566 213.819 149.33 -172.523
lowerback -21.5567 -3.47894 6.82502
upperback -11.5778 -5.59957 3.44787
thorax -0.967749 -2.93935 -1.25613
lowerneck 5.98918 -20.3606 -14.5925
upperneck 7.6448 -28.6335 10.0954
head 4.86626 -14.3959 3.59121
rclavicle 1.5381e-014 -9.54166e-015
rhumerus -48.2415 3.24346 -65.257
rradius 15.8443
rwrist -14.4794
rhand 18.2636 9.80375
rfingers 7.12502
rthumb 42.9142 -14.4724
lclavicle 1.5381e-014 -9.54166e-015
lhumerus -236.643 -191.97 234.643
lradius 24.359
lwrist -1.83479
lhand 22.4964 25.86
lfingers 7.12502
lthumb 46.8532 48.5907
rfemur 121.114 -189.596 -163.618
rtibia 44.3533
rfoot -54.4962 -37.5801
rtoes 42.1143
lfemur -15.8064 -0.229887 -26.9242
ltibia 36.197
lfoot 1.39808 39.4699
ltoes 26.1597
682
root -1.18674 16.63 26.8552 213.844 149.401 -172.462
lowerback -21.5668 -3.46894 6.7278
upperback -11.5973 -5.56787 3.43193
thorax -0.972505 -2.91981 -1.21369
lowerneck 5.80975 -20.238 -14.3478
upperneck 7.56704 -28.4047 9.85087
head 4.77242 -14.2793 3.52431
rclavicle 1.49834e-014 -4.77083e-014
rhumerus -48.3766 3.77263 -65.7434
rradius 16.0659
rwrist -14.8204
rhand 17.2393 10.1122
rfingers 7.12502
rthumb 41.9551 -14.4929
lclavicle 1.49834e-014 -4.77083e-014
lhumerus -236.632 -192.01 234.751
lradius 24.4543
lwrist -2.03688
lhand 22.2606 25.6086
lfingers 7.12502
lthumb 46.6349 48.434
rfemur 121.132 -189.635 -163.699
rtibia 44.3181
rfoot -54.4461 -37.5721
rtoes 42.1279
lfemur -15.7874 -0.389564 -26.9866
ltibia 36.2458
lfoot -0.922675 39.4983
ltoes 28.9969
683
root -1.18972 16.6287 26.8563 213.9 149.485 -172.431
lowerback -21.5709 -3.43694 6.66187
upperback -11.7366 -5.5009 3.39393
thorax -1.11716 -2.88994 -1.19732
lowerneck 5.74171 -20.0743 -14.2904
upperneck 7.76696 -28.1625 9.56724
head 4.76768 -14.1632 3.46059
rclavicle 7.73272e-014 -1.11319e-014
rhumerus -48.7886 4.18882 -66.1267
rradius 16.3126
rwrist -14.765
rhand 16.1759 10.5115
rfingers 7.12502
rthumb 40.9574 -14.4185
lclavicle 7.73272e-014 -1.11319e-014
lhumerus -236.864 -191.415 235.355
lradius 25.0216
lwrist -1.64348
lhand 21.7808 25.5453
lfingers 7.12502
lthumb 46.1902 48.5602
rfemur 121.078 -189.836 -163.888
rtibia 44.2564
rfoot -54.5974 -37.6174
rtoes 42.2768
lfemur -15.8488 -0.502111 -27.0358
ltibia 36.3234
lfoot -2.38833 39.4667
ltoes 30.6137
684
root -1.19265 16.6271 26.8592 213.828 149.471 -172.475
lowerback -21.5636 -3.40135 6.69531
upperback -11.7445 -5.45801 3.36175
thorax -1.13396 -2.87136 -1.2408
lowerneck 5.59917 -19.9614 -14.2179
upperneck 7.90389 -27.9817 9.36519
head 4.77224 -14.0727 3.40298
rclavicle 2.5345e-014 1.11319e-014
rhumerus -49.0339 4.45051 -66.4888
rradius 16.5531
rwrist -14.7732
rhand 15.0936 10.7187
rfingers 7.12502
rthumb 39.9398 -14.5255
lclavicle 2.5345e-014 1.11319e-014
lhumerus -236.973 -190.683 236.245
lradius 25.7245
lwrist -1.079
lhand 21.1884 25.6029
lfingers 7.12502
lthumb 45.6405 48.8456
rfemur 121.123 -190.3 -164.155
rtibia 44.2028
rfoot -55.2193 -37.5773
rtoes 42.8951
lfemur -15.8719 -0.318693 -26.9818
ltibia 36.3884
lfoot 1.49336 39.451
ltoes 25.9991
685
root -1.19516 16.6277 26.859 213.772 149.385 -172.628
lowerback -21.6767 -3.34419 6.84749
upperback -11.6431 -5.42865 3.40926
thorax -0.976149 -2.85519 -1.28236
lowerneck 5.41103 -19.8663 -14.1648
upperneck 7.81115 -27.8163 9.32228
head 4.73968 -13.9861 3.3928
rclavicle 3.00662e-014 -7.95139e-015
rhumerus -49.0429 4.86021 -66.9278
rradius 16.7855
rwrist -15.0547
rhand 13.8918 11.19
rfingers 7.12502
rthumb 38.8075 -14.3849
lclavicle 3.00662e-014 -7.95139e-015
lhumerus -236.888 -190.025 237.385
lradius 26.4609
lwrist -0.413822
lhand 20.323 25.0996
lfingers 7.12502
lthumb 44.8359 48.6635
rfemur 121.068 -191.09 -164.549
rtibia 44.1551
rfoot -56.4008 -37.44
rtoes 43.6088
lfemur -15.9774 -0.269233 -26.8087
ltibia 36.4526
lfoot 3.34639 39.3345
ltoes 23.3347
